<svg width="103" height="70" viewBox="0 0 103 70" fill="none" xmlns="http://www.w3.org/2000/svg">
<path d="M17.4696 11.3076C17.8492 19.7347 16.6821 28.2664 15.2858 36.5526C14.029 44.011 12.321 51.3584 9.84885 58.512C9.06493 60.7804 7.81264 63.1325 7.41211 65.5096" stroke="#1D1C1B" stroke-width="3" stroke-linecap="round"/>
<path d="M37.7728 6.87598C39.2627 18.3921 36.1098 30.6154 33.7229 41.8242C32.4141 47.9707 30.7752 54.0222 29.3618 60.1407C28.7847 62.6388 28.505 65.4867 27.6533 67.843" stroke="#1D1C1B" stroke-width="3" stroke-linecap="round"/>
<path d="M2 39.1112C11.9236 37.6145 21.8853 36.2446 31.7683 34.4865C33.4771 34.1825 35.011 33.8016 36.6476 33.306C38.3432 32.7924 40.0359 32.2701 41.73 31.7521C42.4324 31.5374 43.1467 31.421 43.8441 31.2076C44.3199 31.0622 44.7835 30.8187 45.213 30.6873C46.4284 30.3158 47.6242 29.8483 48.8176 29.4833C49.0931 29.3992 49.3117 29.3324 49.5397 29.1609C49.7823 28.978 49.9619 28.7656 50.2837 28.7806C50.7168 28.8005 51.9607 28.8448 52.1751 28.3041C52.216 28.2013 53.078 28.5483 53.2245 28.5889C53.4488 28.651 53.5533 27.8999 53.7929 27.7641C54.2614 27.4987 55.0763 27.5872 55.5301 27.782C55.921 27.9499 56.0025 27.8306 56.2716 27.6345C56.6252 27.3768 57.0037 27.8169 57.3406 27.8736C57.7317 27.9395 57.9845 27.3867 58.1568 27.1375C58.5094 26.6276 58.624 26.7037 59.1831 26.9029C59.5779 27.0436 59.7641 27.0074 59.8997 26.5818C59.9972 26.2763 60.0901 26.0098 60.4146 26.2662C60.8282 26.5929 60.7242 26.5109 60.9294 26.2106C61.0815 25.9878 61.7399 26.6188 61.9275 26.5505C62.2519 26.4325 62.1301 25.5152 62.5494 25.5115C62.7794 25.5095 63.6673 25.898 63.7103 25.6435C63.822 24.9788 64.0634 25.2984 64.58 25.6378C64.832 25.8034 65.0977 25.9433 65.3507 26.104C65.5119 26.2062 65.477 25.586 65.4801 25.5097C65.5776 23.1681 67.3594 25.9369 67.8662 24.984C68.1352 24.4775 68.023 24.3515 68.6915 24.426C69.0922 24.4705 69.4446 24.6032 69.851 24.479" stroke="#1D1C1B" stroke-width="3" stroke-linecap="round"/>
<path d="M76.09 2C72.0502 3.47134 69.3669 8.36565 67.7476 11.9903C64.4669 19.3347 61.7168 27.7546 61.5437 35.8706C61.4496 40.2948 62.7532 46.3246 68.122 46.4935C71.0958 46.5869 74.1825 45.2525 76.8651 44.1106C81.0332 42.3363 84.8036 39.6592 88.4354 36.9831C93.2725 33.4188 99.4078 28.4865 100.861 22.2612C101.072 21.3583 101.221 19.0092 99.9221 18.7901C97.9412 18.4563 95.5709 19.3934 93.851 20.2187C90.1198 22.0087 86.3292 24.022 83.0449 26.5472" stroke="#1D1C1B" stroke-width="3" stroke-linecap="round"/>
</svg>
