<svg width="186" height="40" viewBox="0 0 186 40" fill="none" xmlns="http://www.w3.org/2000/svg">
<path fill-rule="evenodd" clip-rule="evenodd" d="M22.0831 15.0461C19.7237 16.3188 16.6339 17.922 16.527 18.6422C16.4201 19.3624 17.6261 20.3245 17.8343 20.6037C18.0425 20.8829 20.9143 23.801 21.7562 24.8537C22.4174 25.6805 22.3707 26.8057 22.4099 27.796C22.4766 29.476 20.9859 31.1237 19.4685 32.3728C18.4573 33.2052 17.2147 34.131 15.5465 34.6613C12.9721 35.4796 10.5072 35.1853 8.68318 34.3344C7.25821 33.6694 8.00371 31.9524 7.7027 32.0459C7.56805 32.0878 1.88747 31.3849 0.512513 31.3921C0.0637801 31.3944 0.124572 32.0577 0.0451534 32.9884C0.0392705 33.0581 0.032401 33.129 0.0245572 33.2016C-0.112056 34.4749 0.299095 35.8722 1.81982 36.9497C5.33876 39.4428 9.06001 39.8809 10.6441 39.892C12.0851 39.9021 15.1583 39.9371 16.8267 39.7645C17.3065 39.7148 17.1205 39.7011 17.8343 39.5651C20.7124 39.0168 21.5108 38.3496 22.7367 36.6228C23.3263 35.7921 25.8596 33.0169 27.966 30.0844C28.6206 29.1733 28.6539 27.9513 28.6582 27.2144C28.667 25.791 28.0591 24.3456 27.3123 23.546C26.4514 22.6241 24.598 21.0019 24.311 20.7145C23.327 19.7292 22.3896 18.8478 22.4099 17.9884C22.4171 17.6797 22.4593 16.9183 22.4681 16.0638C22.4762 15.2609 22.3347 14.9104 22.0831 15.0461Z" fill="#1D1C1B"/>
<path fill-rule="evenodd" clip-rule="evenodd" d="M30.9067 9.81547C31.3221 10.1515 32.1634 11.9816 32.214 12.4308C32.2647 12.88 32.2353 17.3592 32.5408 17.9885C32.9304 18.7911 34.4077 20.427 36.1359 21.9115C36.4824 22.209 39.4101 24.5733 39.4042 27.1422C39.4006 28.7942 39.5049 30.3124 38.4237 31.7191C37.6093 32.7787 37.22 33.4868 37.0645 34.4898C36.9759 35.0583 37.1364 35.888 37.1164 36.296C37.053 37.6011 37.4975 37.5246 33.8482 37.6037C30.1988 37.6828 30.3191 37.8407 30.5799 35.6422C30.8407 33.4436 31.7221 32.1814 32.214 31.7191C32.7059 31.2569 33.7361 29.4938 33.5213 27.1422C33.2474 24.1431 31.6166 23.316 29.9262 21.9115C28.2212 20.4947 26.0357 19.1723 26.0043 17.0077C25.9857 15.7262 26.0354 13.5362 26.0043 12.1039C25.9929 11.5805 27.5345 10.7681 28.9458 10.1424C29.4249 9.92989 30.4913 9.4794 30.9067 9.81547Z" fill="#1D1C1B"/>
<path fill-rule="evenodd" clip-rule="evenodd" d="M34.502 8.18073C34.7429 9.86894 35.6518 10.9932 35.8093 11.7769C36.2231 13.8332 36.0603 14.7168 36.1362 16.3537C36.212 17.9906 36.2522 18.2839 39.0776 20.9545C40.3087 22.1183 42.6606 24.8144 42.9995 25.8344C43.4103 27.0712 44.2032 28.5907 42.9995 31.0652C41.6919 33.7534 41.2778 34.1745 41.6922 36.2959C42.1102 38.4349 42.6845 38.5425 45.941 38.9112C46.5658 38.9822 47.7244 38.9949 48.8781 38.9573C50.0139 38.9201 50.9371 38.9282 51.0401 38.6811C51.4022 37.8128 50.5387 37.0785 50.5165 35.642C50.5067 34.9996 50.4407 34.1127 50.8626 33.1793C51.3656 32.0665 52.7233 30.5715 52.8043 30.0844C52.9279 29.3442 54.1708 25.9757 50.1897 22.8921C46.2086 19.8086 43.7757 20.0842 43.98 15.0176C44.0375 13.5929 43.9212 11.7304 45.941 14.0653C47.6937 16.0915 48.653 17.7379 50.1897 17.9883C50.7198 18.0746 53.3217 17.9481 54.7653 19.296C56.5942 21.0039 57.7404 22.3671 58.3604 22.8921C59.066 23.4894 60.3798 24.9024 61.2551 25.7589C62.2761 26.7586 63.5762 27.4213 64.2432 27.7959C65.4819 28.492 67.0252 29.8186 68.1652 33.0267C69.3051 36.2347 72.0531 37.2727 73.0676 37.6412C74.7661 38.2584 75.3129 38.704 77.3163 38.9112C79.6436 39.1522 82.8838 38.8338 84.1797 38.5843C85.4755 38.3349 84.0431 37.172 84.1797 36.2959C84.3163 35.4197 84.4372 33.7103 85.1601 32.6998C85.8831 31.6892 88.0101 29.2762 87.4479 26.8152C86.8858 24.3541 84.7536 21.9784 82.8724 20.6276C82.0272 20.0205 79.0956 17.243 79.6041 15.6999C79.8388 14.9879 79.6332 15.0801 79.2773 15.373C78.7524 15.8052 78.0343 15.7345 77.3163 15.6999C76.7264 15.6715 74.9455 14.3432 73.7212 12.7576C72.7146 11.4542 71.4619 10.4741 70.7798 10.4692C70.0977 10.4643 71.3455 11.6624 71.1066 13.4115C70.9396 14.6328 70.8128 15.2811 70.7798 15.6999C70.6435 17.4211 71.0144 17.973 72.0871 18.9691C73.1597 19.9652 74.4252 21.2003 75.3554 22.2383C77.6768 24.8288 78.1736 24.991 77.97 27.1421C77.7356 29.6175 77.7794 30.732 76.9895 30.4113C76.1995 30.0906 73.7055 26.0061 72.7407 24.8537C71.8622 23.8046 70.6268 21.1451 66.2042 19.9737C62.2352 18.9223 61.5656 19.3777 59.3408 16.0268C57.1109 12.668 55.3862 11.4731 49.8629 11.123C47.9761 11.0034 44.9418 7.2441 41.6922 6.87305C39.876 6.66578 34.352 7.12935 34.502 8.18073Z" fill="#1D1C1B"/>
<path fill-rule="evenodd" clip-rule="evenodd" d="M101.502 9.69462C100.16 9.62074 99.8772 9.72077 97.9071 10.796C97.2175 11.1723 94.5751 13.5039 92.6778 14.0652C90.7806 14.6265 90.3865 15.2447 88.4291 15.6998C86.4717 16.1549 86.1779 17.9824 86.795 18.969C87.412 19.9557 90.4963 23.5874 90.7169 25.1805C90.9375 26.7736 90.9002 29.3075 90.39 30.4112C89.8799 31.5149 89.1746 32.6206 89.4096 34.0074C89.6446 35.3941 90.9711 36.9889 92.6778 37.6411C94.3845 38.2936 98.2512 39.6608 101.175 39.565C104.099 39.4692 106.704 39.3182 108.692 38.2573C110.68 37.1965 113.245 35.5226 113.922 34.9881C114.598 34.4536 114.842 34.1881 115.229 34.0074C115.616 33.8266 114.05 36.81 113.922 37.2766C113.793 37.7431 113.386 38.5728 114.575 38.5842C115.765 38.5957 116.705 38.5728 117.19 38.5842C117.675 38.5957 118.091 38.546 118.17 37.2766C118.25 36.0071 119.219 33.8367 120.131 32.6997C121.694 30.7509 123.069 29.3631 123.4 28.4497C123.723 27.5556 124.263 26.4274 123.073 26.8151C122.007 27.1623 119.865 28.1823 115.229 28.1228C110.59 28.0633 110.679 27.3405 110 27.142C109.32 26.9436 109.172 27.4961 108.692 28.7766C108.213 30.0572 107.5 30.8189 107.058 31.0651C106.833 31.1906 106.439 31.6794 108.039 31.7189C108.985 31.7424 110.529 32.0223 114.575 31.7189C115.351 31.6607 115.178 32.1204 114.575 32.3728C113.973 32.6251 111.566 33.2312 109.673 33.3535C107.78 33.4758 101.15 33.4441 99.868 33.0266C99.0326 32.7546 98.0907 32.2815 97.7868 30.8558C97.624 30.0928 97.8776 28.3572 97.9071 27.7959C97.992 26.1858 97.975 25.3443 97.2534 23.8728C96.5458 22.4305 96.0419 20.536 96.8749 19.3656C96.8916 19.342 98.6843 16.8042 100.848 17.0075C103.142 17.2233 104.38 17.8513 106.731 17.9883C108.757 18.1063 109.149 18.4492 111.307 19.9736C112.348 20.7089 113.944 21.8704 114.649 22.5079C116.082 23.8032 116.455 24.7179 116.863 25.5074C117.105 25.9749 118.537 25.0236 119.151 24.8536C119.765 24.6836 122.614 24.4923 123.073 24.1997C123.532 23.9071 121.939 21.7456 120.785 20.2767C118.76 17.7002 118.376 16.693 115.229 14.7191C114.076 13.9962 109.755 11.8366 109.019 11.4499C105.434 9.56352 102.613 9.75608 101.502 9.69462Z" fill="#1D1C1B"/>
<path fill-rule="evenodd" clip-rule="evenodd" d="M122.42 14.0653C122.509 15.0628 123.722 16.1815 124.381 18.3153C124.856 19.8528 126.661 21.9791 126.996 22.5653C127.325 23.141 128.385 25.3075 126.996 28.4498C125.718 31.3415 124.361 31.8825 122.747 34.6613C121.932 36.0641 121.525 38.1705 121.766 38.5844C122.019 39.0175 126.371 38.9675 128.303 38.9113C130.236 38.8551 130.489 39.0349 135.82 38.9969C141.151 38.959 145.089 38.7498 146.932 37.6036C148.37 36.7095 154.352 30.9675 151.181 30.4114C147.92 29.8396 149.244 30.2221 148.566 30.0844C147.889 29.9468 148.698 29.6199 149.547 29.4306C150.396 29.2413 151.983 28.8068 152.815 28.1229C153.529 27.5361 154.694 27.1706 155.279 25.4847C155.608 24.5359 155.241 23.8857 155.103 23.546C154.343 21.6734 153.605 21.2788 152.815 20.2768C152.328 19.659 151.046 17.6932 150.2 16.3538C149.656 15.4904 147.313 12.2097 144.971 12.4307C140.411 12.861 139.532 11.9966 138.435 11.45C137.804 11.1361 133.327 10.3777 132.225 11.7769C131.123 13.1761 127.057 13.5933 125.688 13.7384C124.054 13.9117 122.384 13.6649 122.42 14.0653ZM139.742 20.3007C140.93 21.6721 142.136 22.919 142.357 23.2191C143.029 24.1335 144.313 25.2993 145.952 25.5076C147.59 25.7158 147.998 26.1591 147.913 26.4883C147.747 27.1288 146.896 28.9536 145.298 28.7768C143.377 28.5639 139.769 27.4733 138.435 24.8537C137.867 23.7389 136.597 23.1152 135.74 23.0344C134.421 22.9099 134.308 23.1903 133.859 22.8922C133.542 22.681 132.777 21.4472 132.552 20.2768C132.415 19.5658 133.823 19.1323 134.84 18.9692C135.856 18.806 138.543 18.9165 139.742 20.3007ZM133.859 28.7768C133.376 29.3185 132.178 30.3888 131.244 31.719C131.042 32.0077 130.227 32.8061 132.552 33.0267C134.876 33.2474 136.852 33.5119 138.108 33.6806C139.364 33.8493 142.572 34.1389 143.337 33.6806C144.102 33.2222 145.878 31.8436 144.644 31.719C139.905 31.2411 137.706 30.53 136.801 30.0844C135.036 29.2165 134.124 28.4802 133.859 28.7768Z" fill="#1D1C1B"/>
<path fill-rule="evenodd" clip-rule="evenodd" d="M168.5 0.00778439C167.642 -0.159272 165.689 2.40509 165.232 3.60391C164.325 5.98454 164.156 6.964 164.905 8.50771C165.847 10.4493 168.796 12.606 169.808 13.0846C170.819 13.5632 172.441 15.4348 172.422 16.6807C172.403 17.9266 172.998 20.0918 174.056 20.9307C175.005 21.6829 175.354 24.2463 174.344 25.912C173.401 27.4665 172.009 28.6277 171.442 29.1037C170.958 29.5091 170.207 29.869 170.134 29.1037C169.965 27.3217 169.405 25.043 168.5 23.5461C167.24 21.46 165.701 19.3853 165.559 17.6615C165.363 15.289 164.399 15.0236 162.617 14.0654C160.649 13.0065 160.061 12.6537 159.349 12.7577C158.347 12.9041 158.74 13.8901 158.042 14.7192C156.795 16.2001 154.586 15.255 154.12 15.7C153.545 16.2489 156.358 18.6406 157.061 19.2961C159 21.1017 159.137 20.5926 160.622 22.4237C161.821 23.9008 162.544 25.7426 162.617 26.4883C162.782 28.1582 162.501 30.4732 162.29 31.3921C162.08 32.3111 162.429 33.661 161.964 34.6613C161.498 35.6617 161.15 36.2636 160.983 37.2767C160.816 38.2898 160.843 38.8005 161.31 38.9113C162.311 39.1487 167.094 39.1444 167.847 38.997C168.29 38.91 167.737 37.5961 167.847 36.9498C167.956 36.3035 169.194 34.5335 170.461 34.0075C172.401 33.2023 175.857 31.6596 177.325 31.0652C178.883 30.4339 181.89 28.7199 183.861 25.8345C185.077 24.0534 185.521 23.601 185.168 23.5461C183.822 23.3358 178.977 19.4527 178.632 17.0076C178.246 14.2811 177.358 12.3928 176.998 11.45C176.549 10.276 170.197 2.47701 169.165 0.631874C168.786 -0.0458317 168.603 0.0280534 168.5 0.00778439Z" fill="#1D1C1B"/>
</svg>
