<svg width="1746" height="377" viewBox="0 0 1746 377" fill="none" xmlns="http://www.w3.org/2000/svg">
<path fill-rule="evenodd" clip-rule="evenodd" d="M208.091 142.343C185.859 154.335 156.743 169.443 155.736 176.229C154.729 183.016 166.093 192.082 168.055 194.713C170.017 197.344 197.078 224.841 205.012 234.761C211.242 242.552 210.801 253.155 211.171 262.486C211.799 278.318 197.753 293.844 183.453 305.615C173.925 313.458 162.216 322.182 146.497 327.179C122.238 334.89 99.0105 332.117 81.8226 324.098C68.395 317.833 75.4198 301.653 72.5834 302.534C71.3146 302.929 17.7859 296.305 4.82947 296.373C0.601007 296.395 1.17386 302.645 0.425485 311.416C0.37005 312.072 0.305318 312.74 0.231405 313.424C-1.05592 325.423 2.81841 338.59 17.1484 348.743C50.3078 372.236 85.3735 376.364 100.301 376.469C113.879 376.564 142.838 376.894 158.56 375.267C163.081 374.799 161.329 374.67 168.055 373.388C195.175 368.222 202.699 361.935 214.251 345.663C219.807 337.835 243.678 311.684 263.526 284.051C269.695 275.465 270.009 263.95 270.049 257.006C270.132 243.593 264.404 229.974 257.367 222.438C249.255 213.751 231.79 198.465 229.086 195.757C219.813 186.472 210.98 178.167 211.171 170.068C211.239 167.16 211.636 159.985 211.719 151.933C211.796 144.367 210.463 141.064 208.091 142.343Z" fill="#1D1C1B" fill-opacity="0.06"/>
<path fill-rule="evenodd" clip-rule="evenodd" d="M291.237 93.0544C295.152 96.2212 303.079 113.466 303.556 117.699C304.034 121.932 303.757 164.139 306.636 170.07C310.307 177.632 324.227 193.048 340.513 207.037C343.778 209.84 371.366 232.119 371.31 256.327C371.276 271.893 372.259 286.199 362.071 299.455C354.396 309.439 350.729 316.112 349.263 325.563C348.428 330.92 349.94 338.739 349.752 342.584C349.155 354.881 353.343 354.16 318.955 354.906C284.567 355.651 285.7 357.139 288.158 336.422C290.615 315.705 298.921 303.811 303.556 299.455C308.191 295.099 317.899 278.485 315.875 256.327C313.294 228.065 297.927 220.271 281.998 207.037C265.931 193.685 245.337 181.224 245.042 160.828C244.866 148.752 245.334 128.115 245.042 114.619C244.934 109.687 259.461 102.031 272.759 96.135C277.274 94.1326 287.323 89.8875 291.237 93.0544Z" fill="#1D1C1B" fill-opacity="0.06"/>
<path fill-rule="evenodd" clip-rule="evenodd" d="M325.116 77.65C327.386 93.5583 335.951 104.152 337.435 111.537C341.334 130.914 339.8 139.241 340.515 154.665C341.229 170.09 341.608 172.853 368.232 198.019C379.834 208.986 401.995 234.391 405.189 244.003C409.06 255.657 416.532 269.975 405.189 293.293C392.867 318.624 388.965 322.592 392.87 342.582C396.809 362.739 402.22 363.752 432.906 367.227C438.795 367.896 449.713 368.016 460.584 367.661C471.286 367.31 479.986 367.387 480.956 365.058C484.369 356.876 476.232 349.957 476.023 336.421C475.93 330.368 475.308 322.01 479.284 313.215C484.024 302.728 496.817 288.641 497.581 284.051C498.745 277.076 510.457 245.334 472.943 216.277C435.429 187.221 412.503 189.818 414.428 142.075C414.97 128.649 413.874 111.099 432.906 133.101C449.423 152.195 458.462 167.708 472.943 170.068C477.938 170.882 502.456 169.689 516.059 182.391C533.293 198.484 544.094 211.33 549.936 216.277C556.585 221.906 568.966 235.22 577.213 243.291C586.834 252.712 599.085 258.956 605.371 262.486C617.043 269.045 631.586 281.546 642.328 311.776C653.07 342.006 678.964 351.787 688.524 355.259C704.529 361.075 709.681 365.274 728.56 367.227C750.491 369.497 781.023 366.497 793.234 364.146C805.445 361.796 791.947 350.838 793.234 342.582C794.522 334.326 795.661 318.218 802.473 308.696C809.286 299.173 829.329 276.435 824.031 253.245C818.734 230.054 798.642 207.667 780.915 194.938C772.951 189.217 745.326 163.044 750.118 148.504C752.329 141.794 750.392 142.663 747.038 145.423C742.092 149.496 735.326 148.831 728.56 148.504C723.001 148.236 706.22 135.719 694.683 120.779C685.198 108.496 673.393 99.2605 666.966 99.2143C660.538 99.1681 672.297 110.458 670.045 126.94C668.472 138.449 667.277 144.558 666.966 148.504C665.681 164.723 669.177 169.923 679.284 179.31C689.392 188.697 701.317 200.335 710.082 210.116C731.957 234.527 736.638 236.055 734.719 256.325C732.511 279.652 732.924 290.153 725.48 287.131C718.037 284.109 694.535 245.62 685.444 234.761C677.166 224.875 665.524 199.815 623.849 188.777C586.449 178.87 580.139 183.161 559.175 151.585C538.162 119.934 521.911 108.675 469.863 105.375C452.084 104.248 423.492 68.8241 392.87 65.3276C375.756 63.3745 323.703 67.7428 325.116 77.65Z" fill="#1D1C1B" fill-opacity="0.06"/>
<path fill-rule="evenodd" clip-rule="evenodd" d="M956.466 91.9156C943.821 91.2193 941.154 92.162 922.589 102.294C916.091 105.84 891.191 127.811 873.313 133.1C855.436 138.39 851.722 144.215 833.277 148.503C814.833 152.791 812.064 170.012 817.878 179.309C823.693 188.607 852.756 222.829 854.835 237.841C856.914 252.853 856.563 276.73 851.755 287.131C846.948 297.531 840.302 307.949 842.516 321.017C844.731 334.085 857.231 349.112 873.313 355.258C889.396 361.407 925.832 374.29 953.386 373.388C980.941 372.485 1005.49 371.062 1024.22 361.065C1042.95 351.069 1067.12 335.296 1073.5 330.259C1079.87 325.222 1082.17 322.721 1085.81 321.017C1089.46 319.314 1074.71 347.427 1073.5 351.823C1072.29 356.219 1068.45 364.038 1079.66 364.146C1090.86 364.254 1099.73 364.038 1104.29 364.146C1108.86 364.254 1112.78 363.785 1113.53 351.823C1114.28 339.861 1123.41 319.409 1132.01 308.695C1146.74 290.331 1159.69 277.254 1162.81 268.647C1165.86 260.221 1170.95 249.59 1159.73 253.244C1149.68 256.515 1129.5 266.127 1085.81 265.566C1042.1 265.006 1042.94 258.194 1036.54 256.324C1030.13 254.455 1028.74 259.661 1024.22 271.727C1019.7 283.794 1012.98 290.972 1008.82 293.292C1006.7 294.475 1002.99 299.08 1018.06 299.453C1026.98 299.675 1041.53 302.312 1079.66 299.453C1086.96 298.905 1085.33 303.236 1079.66 305.614C1073.98 307.992 1051.3 313.704 1033.46 314.856C1015.62 316.008 953.152 315.709 941.067 311.775C933.196 309.212 924.32 304.755 921.456 291.32C919.922 284.13 922.312 267.775 922.589 262.486C923.39 247.314 923.23 239.384 916.43 225.518C909.762 211.927 905.013 194.075 912.863 183.046C913.02 182.824 929.913 158.909 950.307 160.826C971.923 162.859 983.583 168.777 1005.74 170.067C1024.83 171.18 1028.52 174.411 1048.86 188.776C1058.67 195.704 1073.71 206.65 1080.35 212.657C1093.86 224.862 1097.37 233.482 1101.21 240.921C1103.49 245.327 1116.98 236.362 1122.77 234.76C1128.56 233.158 1155.4 231.356 1159.73 228.599C1164.05 225.842 1149.05 205.473 1138.17 191.632C1119.09 167.353 1115.47 157.862 1085.81 139.261C1074.96 132.45 1034.23 112.1 1027.3 108.455C993.512 90.6802 966.937 92.4947 956.466 91.9156Z" fill="#1D1C1B" fill-opacity="0.06"/>
<path fill-rule="evenodd" clip-rule="evenodd" d="M1153.58 133.101C1154.42 142.5 1165.84 153.042 1172.06 173.149C1176.54 187.637 1193.54 207.674 1196.7 213.197C1199.8 218.622 1209.78 239.037 1196.7 268.648C1184.65 295.896 1171.87 300.994 1156.66 327.18C1148.98 340.399 1145.14 360.247 1147.42 364.147C1149.8 368.229 1190.8 367.757 1209.01 367.228C1227.22 366.698 1229.61 368.392 1279.85 368.035C1330.08 367.677 1367.19 365.706 1384.56 354.905C1398.11 346.48 1454.48 292.372 1424.6 287.132C1393.87 281.744 1406.34 285.348 1399.96 284.051C1393.57 282.754 1401.2 279.674 1409.2 277.89C1417.2 276.106 1432.15 272.012 1439.99 265.568C1446.72 260.038 1457.7 256.594 1463.21 240.707C1466.32 231.767 1462.85 225.64 1461.55 222.439C1454.39 204.793 1447.44 201.075 1439.99 191.633C1435.4 185.811 1423.32 167.287 1415.36 154.666C1410.22 146.53 1388.14 115.616 1366.08 117.698C1323.11 121.752 1314.83 113.607 1304.49 108.457C1298.55 105.499 1256.36 98.3521 1245.97 111.537C1235.59 124.722 1197.27 128.653 1184.38 130.021C1168.97 131.653 1153.24 129.328 1153.58 133.101ZM1316.8 191.858C1328 204.781 1339.36 216.53 1341.44 219.358C1347.77 227.975 1359.88 238.96 1375.32 240.923C1390.76 242.885 1394.6 247.062 1393.8 250.164C1392.23 256.199 1384.22 273.395 1369.16 271.729C1351.05 269.723 1317.06 259.446 1304.49 234.761C1299.13 224.257 1287.17 218.379 1279.09 217.618C1266.66 216.444 1265.6 219.087 1261.37 216.278C1258.38 214.288 1251.18 202.661 1249.05 191.633C1247.76 184.933 1261.03 180.848 1270.61 179.31C1280.19 177.773 1305.5 178.815 1316.8 191.858ZM1261.37 271.729C1256.81 276.833 1245.52 286.919 1236.73 299.454C1234.82 302.174 1227.15 309.697 1249.05 311.777C1270.95 313.856 1289.57 316.348 1301.41 317.938C1313.24 319.527 1343.47 322.257 1350.68 317.938C1357.89 313.619 1374.62 300.628 1363 299.454C1318.34 294.95 1297.62 288.25 1289.09 284.051C1272.46 275.872 1263.86 268.935 1261.37 271.729Z" fill="#1D1C1B" fill-opacity="0.06"/>
<path fill-rule="evenodd" clip-rule="evenodd" d="M1587.8 0.635365C1579.71 -0.938825 1561.3 23.2255 1557 34.522C1548.45 56.955 1546.86 66.1845 1553.92 80.7312C1562.8 99.0269 1590.58 119.35 1600.12 123.86C1609.65 128.37 1624.93 146.006 1624.75 157.746C1624.57 169.487 1630.18 189.889 1640.15 197.794C1649.09 204.883 1652.38 229.038 1642.87 244.733C1633.98 259.382 1620.86 270.324 1615.51 274.809C1610.96 278.629 1603.88 282.021 1603.2 274.809C1601.6 258.017 1596.32 236.545 1587.8 222.439C1575.92 202.782 1561.42 183.232 1560.08 166.988C1558.23 144.632 1549.15 142.131 1532.36 133.101C1513.81 123.123 1508.27 119.799 1501.56 120.779C1492.12 122.159 1495.83 131.45 1489.25 139.263C1477.49 153.218 1456.68 144.312 1452.29 148.505C1446.87 153.677 1473.38 176.215 1480.01 182.391C1498.28 199.405 1499.56 194.609 1513.56 211.863C1524.85 225.781 1531.67 243.138 1532.36 250.165C1533.91 265.9 1531.27 287.714 1529.28 296.374C1527.3 305.033 1530.59 317.753 1526.2 327.18C1521.82 336.606 1518.54 342.278 1516.96 351.825C1515.39 361.371 1515.64 366.183 1520.04 367.228C1529.48 369.464 1574.54 369.424 1581.64 368.035C1585.82 367.215 1580.6 354.834 1581.64 348.744C1582.67 342.654 1594.33 325.975 1606.27 321.019C1624.55 313.431 1657.12 298.894 1670.95 293.293C1685.64 287.344 1713.97 271.193 1732.54 244.003C1744.01 227.22 1748.19 222.957 1744.86 222.439C1732.17 220.458 1686.52 183.867 1683.27 160.827C1679.64 135.135 1671.26 117.341 1667.87 108.457C1663.64 97.3942 1603.78 23.9032 1594.06 6.51623C1590.49 0.130135 1588.77 0.826362 1587.8 0.635365Z" fill="#1D1C1B" fill-opacity="0.06"/>
</svg>
